<?xml version="1.0" encoding="UTF-8"?>
<svg version="1.1" width="656" height="70" viewBox="0 0 656 70"
	xmlns="http://www.w3.org/2000/svg"
	xmlns:xlink="http://www.w3.org/1999/xlink"
	xml:space="preserve"
	xml:lang="en">
<title>Binary deck format</title>
<style type="text/css">
	rect{
		fill: #fff;
		stroke: #000;
	}
	line{
		fill: none;
		stroke: #000;
	}
	text{
		font-family: Arial, Helvetica, sans-serif;
		text-anchor: middle;
	}
	text:not([font-size]){
		font-size: 20px;
	}
</style>
<rect x="0.5" y="0.5" width="655" height="69"/>
<line x1="0" y1="35.7" x2="656" y2="35.7"/>
<line x1="52"  y1="0" x2="52"  y2="70"/>
<line x1="95"  y1="0" x2="95"  y2="70"/>
<line x1="134" y1="0" x2="134" y2="70"/>
<line x1="174" y1="0" x2="174" y2="70"/>
<line x1="214" y1="0" x2="214" y2="70"/>
<line x1="253" y1="0" x2="253" y2="70"/>
<line x1="293" y1="0" x2="293" y2="70"/>
<line x1="331" y1="0" x2="331" y2="70" stroke-width="4"/>
<line x1="371" y1="0" x2="371" y2="70"/>
<line x1="411" y1="0" x2="411" y2="70"/>
<line x1="450" y1="0" x2="450" y2="70"/>
<line x1="490" y1="0" x2="490" y2="70"/>
<line x1="529" y1="0" x2="529" y2="70"/>
<line x1="569" y1="0" x2="569" y2="70"/>
<line x1="609" y1="0" x2="609" y2="70"/>
<g>
	<title>MSB</title>
	<desc>Most Significant Byte</desc>
	<text x="26" y="24" font-size="14">MSB</text>
</g>
<g>
	<title>LSB</title>
	<desc>Least Significant Byte</desc>
	<text x="632" y="24" font-size="14">LSB</text>
</g>
<text x="26"  y="62" font-size="20">12</text>
<text x="73"  y="62" font-size="20">11</text>
<text x="115" y="62" font-size="20">0</text>
<text x="155" y="62" font-size="20">1</text>
<text x="193" y="62" font-size="20">2</text>
<text x="233" y="62" font-size="20">3</text>
<text x="273" y="62" font-size="20">4</text>
<text x="312" y="62" font-size="20">5</text>
<text x="352" y="62" font-size="20">6</text>
<text x="391" y="62" font-size="20">7</text>
<text x="431" y="62" font-size="20">8</text>
<text x="470" y="62" font-size="20">9</text>
<text x="510" y="62" font-size="20">–</text>
<text x="550" y="62" font-size="20">–</text>
<text x="589" y="62" font-size="20">–</text>
<text x="633" y="62" font-size="20">–</text>
</svg>
