<?xml version="1.0" encoding="utf-8"?>
<svg version="1.1" width="740" height="60" viewBox="0 0 740 60"
	xmlns="http://www.w3.org/2000/svg"
	xmlns:xlink="http://www.w3.org/1999/xlink"
	xml:space="preserve"
	xml:lang="en">
<title>IBM 1130 extended-precision floating point format</title>
<style type="text/css">
	line, rect{
		fill: none;
		stroke: currentColor;
	}
	text{
		fill: currentColor;
		font-family: Arial, Helvetica, sans-serif;
		text-anchor: middle;
	}
	@media (prefers-color-scheme: dark){
		:root { color: #ccc; }
	}
</style>
<g opacity="0.25">
	<line x1="740"   y1="29.5"  y2="29.5"/>
	<line x1="94.5"  x2="94.5"  y2="60"/>
	<line x1="139.5" x2="139.5" y2="29.5"/>
	<line x1="185.5" x2="185.5" y2="29.5"/>
	<line x1="231.5" x2="231.5" y2="29.5"/>
	<line x1="277.5" x2="277.5" y2="29.5"/>
	<line x1="324.5" x2="324.5" y2="29.5"/>
	<line x1="370.5" x2="370.5" y2="29.5"/>
	<line x1="416.5" x2="416.5" y2="29.5"/>
	<line x1="462.5" x2="462.5" y2="29.5"/>
	<line x1="508.5" x2="508.5" y2="29.5"/>
	<line x1="555.5" x2="555.5" y2="29.5"/>
	<line x1="601.5" x2="601.5" y2="29.5"/>
	<line x1="647.5" x2="647.5" y2="29.5"/>
	<line x1="693.5" x2="693.5" y2="29.5"/>
</g>
<line x1="46.5" x2="46.5" y2="60"/>
<rect x="0.5" y="0.5" width="739" height="59"/>
<text x="24"  y="21" font-size="15">0</text>
<text x="71"  y="21" font-size="15">1</text>
<text x="716" y="21" font-size="15">15</text>
<text x="24"  y="51">Sign</text>
<text x="71"  y="51">MSB</text>
<text x="417" y="51">Mantissa</text>
</svg>
